<svg width="113" height="66" viewBox="0 0 113 66" fill="none" xmlns="http://www.w3.org/2000/svg">
<path d="M11.0352 65.815C17.1087 65.815 22.0712 61.8388 22.0712 56.9724V0H86.5096V56.9724C86.5096 61.8388 81.5471 65.815 75.4736 65.815" fill="#00B074"/>
<path d="M64.4384 56.9718V50.2656H0V56.9718C0 61.8381 4.96251 65.8143 11.036 65.8143H75.4744C69.4009 65.8143 64.4384 61.8381 64.4384 56.9718Z" fill="#0A5239"/>
<path d="M41.8504 11.335H33.6289V14.1836H41.8504V11.335Z" fill="white"/>
<path d="M73.4717 11.3345H48.2148V14.1831H73.4717V11.3345Z" fill="#F7C604"/>
<path d="M41.8504 21.4238H33.6289V24.2724H41.8504V21.4238Z" fill="white"/>
<path d="M73.4717 21.4243H48.2148V24.2729H73.4717V21.4243Z" fill="#F7C604"/>
<path d="M41.8504 31.5127H33.6289V34.3613H41.8504V31.5127Z" fill="white"/>
<path d="M73.4717 31.5122H48.2148V34.3608H73.4717V31.5122Z" fill="#F7C604"/>
<path d="M41.8504 41.6016H33.6289V44.4502H41.8504V41.6016Z" fill="white"/>
<path d="M73.4717 41.6021H48.2148V44.4507H73.4717V41.6021Z" fill="#F7C604"/>
<path opacity="0.1" d="M86.517 42.0765V8.18976C85.6282 8.07106 84.6653 8.01172 83.7024 8.01172C71.9257 8.01172 62.3711 15.6674 62.3711 25.1035C62.3711 34.5395 71.9257 42.1952 83.7024 42.1952C84.6653 42.2545 85.6282 42.1952 86.517 42.0765Z" fill="#0C1E5B"/>
<path d="M91.1831 38.8132C102.964 38.8132 112.515 31.1609 112.515 21.7213C112.515 12.2817 102.964 4.62939 91.1831 4.62939C79.402 4.62939 69.8516 12.2817 69.8516 21.7213C69.8516 31.1609 79.402 38.8132 91.1831 38.8132Z" fill="#FF5B5B"/>
<path d="M94.9586 22.9072V12.2842H87.4037V22.9072H82.3672L91.1812 31.1563L99.9952 22.9072H94.9586Z" fill="white"/>
</svg>
