<svg width="113" height="81" viewBox="0 0 113 81" fill="none" xmlns="http://www.w3.org/2000/svg">
<path d="M55.5544 16.9883C54.4157 16.9883 53.521 16.2723 53.521 15.3611V11.2605C53.521 6.83438 49.0476 3.25447 43.5982 3.25447C40.9142 3.25447 38.4741 4.10063 36.5221 5.59769C34.5701 7.09474 33.5941 9.11251 33.5941 11.2605V15.3611C33.5941 16.2723 32.6994 16.9883 31.5607 16.9883C30.422 16.9883 29.5273 16.2723 29.5273 15.3611V11.2605C29.5273 8.26635 30.9914 5.46751 33.5941 3.31956C36.2781 1.17161 39.7755 0 43.5169 0C51.2436 0 57.5064 5.01188 57.5064 11.1954V15.296C57.5877 16.2723 56.6931 16.9883 55.5544 16.9883Z" fill="#FFD497"/>
<path d="M87.525 71.8584H28.2321L18.3906 11.0649H83.3769L87.525 71.8584Z" fill="#00B074"/>
<path d="M28.2231 71.8584L14.1522 69.9057L0 71.8584L4.2294 11.0649H23.9937L28.2231 71.8584Z" fill="#0A5239"/>
<path d="M54.013 32.0235C46.2862 32.0235 40.0234 27.0116 40.0234 20.8281V16.7275C40.0234 15.8162 40.9181 15.1002 42.0568 15.1002C43.1955 15.1002 44.0902 15.8162 44.0902 16.7275V20.8281C44.0902 25.2542 48.5636 28.769 54.013 28.769C59.4624 28.769 64.0171 25.1891 64.0171 20.763V16.6624C64.0171 15.7511 64.9118 15.0352 66.0505 15.0352C67.1892 15.0352 68.0838 15.7511 68.0838 16.6624V20.763C68.0838 27.0116 61.8211 32.0235 54.013 32.0235Z" fill="white"/>
<path opacity="0.1" d="M57.6602 63.527C57.6602 66.5211 58.6362 69.385 60.3442 71.8584H87.5912L85.8832 46.8641C83.8499 46.3434 81.7351 46.083 79.5391 46.083C67.4203 46.083 57.6602 53.8937 57.6602 63.527Z" fill="#0C1E5B"/>
<path d="M90.8523 80.9709C102.891 80.9709 112.65 73.161 112.65 63.527C112.65 53.8929 102.891 46.083 90.8523 46.083C78.8138 46.083 69.0547 53.8929 69.0547 63.527C69.0547 73.161 78.8138 80.9709 90.8523 80.9709Z" fill="#FF6966"/>
<path d="M88.5762 70.2973C87.9255 70.2973 87.3561 70.102 86.8681 69.7115L79.9547 64.1789C78.9787 63.3978 78.9787 62.1612 79.9547 61.4452C80.9307 60.6641 82.476 60.6641 83.3707 61.4452L88.5762 65.6109L98.3363 57.8002C99.3123 57.0191 100.858 57.0191 101.752 57.8002C102.728 58.5812 102.728 59.8179 101.752 60.5339L90.2842 69.7115C89.7961 70.102 89.1455 70.2973 88.5762 70.2973Z" fill="white"/>
</svg>
