<svg width="106" height="70" viewBox="0 0 106 70" fill="none" xmlns="http://www.w3.org/2000/svg">
<path d="M41.6628 0L0 14.6426L41.6628 29.2852L83.3256 14.6426L41.6628 0Z" fill="#00B074"/>
<path d="M24.7557 5.97461L16.9141 8.66885L58.5769 23.37L66.3503 20.6172L24.7557 5.97461Z" fill="#F7C604"/>
<path d="M0 14.6426V54.9976L41.6628 69.6402V29.2852L0 14.6426Z" fill="#0A5239"/>
<path d="M83.3308 14.6431V54.9981L41.668 69.6407V29.2857L83.3308 14.6431Z" fill="#00D68D"/>
<path opacity="0.1" d="M83.3294 35.2586C82.102 35.0244 80.8746 34.9072 79.579 34.9072C69.4872 34.9072 61.3047 41.9357 61.3047 50.6041C61.3047 54.6455 63.0776 58.3354 66.0097 61.0882L83.3294 54.9969V35.2586Z" fill="#0C1E5B"/>
<path d="M58.5781 23.3685V40.2954L66.3515 37.5426V20.6157L58.5781 23.3685Z" fill="#F7C604"/>
<path d="M87.0048 65.1296C97.0975 65.1296 105.279 58.1018 105.279 49.4327C105.279 40.7636 97.0975 33.7358 87.0048 33.7358C76.9122 33.7358 68.7305 40.7636 68.7305 49.4327C68.7305 58.1018 76.9122 65.1296 87.0048 65.1296Z" fill="#FF5B5B"/>
<path d="M85.1072 55.5251C84.5617 55.5251 84.0844 55.3494 83.6753 54.998L77.8793 50.0195C77.0611 49.3166 77.0611 48.2038 77.8793 47.5595C78.6976 46.8567 79.9931 46.8567 80.7432 47.5595L85.1072 51.308L93.2898 44.2796C94.108 43.5767 95.4036 43.5767 96.1537 44.2796C96.9719 44.9824 96.9719 46.0953 96.1537 46.7395L86.5392 54.998C86.1301 55.3494 85.6527 55.5251 85.1072 55.5251Z" fill="white"/>
<path d="M13.5015 49.5505L9.00109 41.585L4.77344 46.3292L7.09183 47.2077V52.3619L10.8422 53.8262V48.6134L13.5015 49.5505Z" fill="#F2F5F3"/>
</svg>
