<svg width="153" height="67" viewBox="0 0 153 67" fill="none" xmlns="http://www.w3.org/2000/svg">
<path d="M71.0586 66.8976C75.9424 66.8976 79.9329 63.2319 79.9329 58.7455V6.22217H131.749V58.7455C131.749 63.2319 127.759 66.8976 122.875 66.8976" fill="#00B074"/>
<path d="M114.004 58.7459V52.5635H62.1875V58.7459C62.1875 63.2323 66.178 66.898 71.0618 66.898H122.878C117.994 66.898 114.004 63.2323 114.004 58.7459Z" fill="#0A5239"/>
<path d="M95.8415 16.6714H89.2305V19.2976H95.8415V16.6714Z" fill="#F7C604"/>
<path d="M121.271 16.6714H100.961V19.2976H121.271V16.6714Z" fill="#F3F2F7"/>
<path d="M95.8415 25.9722H89.2305V28.5983H95.8415V25.9722Z" fill="#F7C604"/>
<path d="M121.271 25.9722H100.961V28.5983H121.271V25.9722Z" fill="#F3F2F7"/>
<path d="M95.8415 35.2749H89.2305V37.9011H95.8415V35.2749Z" fill="#F7C604"/>
<path d="M121.271 35.2749H100.961V37.9011H121.271V35.2749Z" fill="#F3F2F7"/>
<path d="M95.8415 44.5767H89.2305V47.2028H95.8415V44.5767Z" fill="#F7C604"/>
<path d="M121.271 44.5767H100.961V47.2028H121.271V44.5767Z" fill="#F3F2F7"/>
<path opacity="0.1" d="M131.752 45.0135V13.773C131.037 13.6636 130.263 13.6089 129.489 13.6089C120.019 13.6089 112.336 20.6667 112.336 29.3659C112.336 38.0651 120.019 45.1229 129.489 45.1229C130.263 45.1776 131.037 45.1229 131.752 45.0135Z" fill="#0C1E5B"/>
<path d="M135.505 42.0046C144.978 42.0046 152.658 34.9498 152.658 26.2474C152.658 17.545 144.978 10.4902 135.505 10.4902C126.031 10.4902 118.352 17.545 118.352 26.2474C118.352 34.9498 126.031 42.0046 135.505 42.0046Z" fill="#FF5B5B"/>
<path d="M14.4465 2L2 14.9252M2 2L14.4465 14.9252" stroke="white" stroke-width="4"/>
<path d="M14.4465 2L2 14.9252M2 2L14.4465 14.9252" stroke="white" stroke-width="4"/>
</svg>
